<svg id="fe81b68b-c9de-476a-9f58-a3e8b1d65bc7" xmlns="http://www.w3.org/2000/svg" width="332.895" height="284.132" viewBox="0 0 332.895 284.132">
  <path d="M322.156,196.873H10.739A10.752,10.752,0,0,1,0,186.135V10.739A10.752,10.752,0,0,1,10.739,0H322.156A10.752,10.752,0,0,1,332.9,10.739v175.4A10.751,10.751,0,0,1,322.156,196.873ZM10.739,2.386a8.364,8.364,0,0,0-8.353,8.353v175.4a8.362,8.362,0,0,0,8.353,8.352H322.156a8.362,8.362,0,0,0,8.352-8.352V10.739a8.362,8.362,0,0,0-8.352-8.353Z" fill="#3f3d56"/>
  <path d="M267.867,284.132H65.028a10.752,10.752,0,0,1-10.739-10.739V236.405a10.752,10.752,0,0,1,10.739-10.739H267.867a10.75,10.75,0,0,1,10.738,10.739v36.988A10.75,10.75,0,0,1,267.867,284.132ZM65.028,228.053a8.361,8.361,0,0,0-8.352,8.352v36.988a8.361,8.361,0,0,0,8.352,8.352H267.867a8.361,8.361,0,0,0,8.352-8.352V236.405a8.361,8.361,0,0,0-8.352-8.352Z" fill="#3f3d56"/>
  <path d="M87.849,247.143a7.756,7.756,0,0,0-.024,15.512H220.291a7.756,7.756,0,0,0,0-15.512Z" fill="#ccc"/>
  <path d="M242.074,249.917a.6.6,0,0,0-.6.6.6.6,0,0,0,.08.3l5.064,8.771a.6.6,0,0,0,1.034,0l5.064-8.771a.6.6,0,0,0-.517-.9Z" fill="#6c63ff"/>
  <circle cx="113.401" cy="78.593" r="44.531" fill="#e6e6e6"/>
  <path d="M285,157.227,232.724,66.689a3.721,3.721,0,0,0-6.447,0l-31.9,55.252L146.82,39.571a4.772,4.772,0,0,0-8.266,0l-67.02,116.08a4.772,4.772,0,0,0,4.134,7.159H281.773A3.723,3.723,0,0,0,285,157.227Z" fill="#6c63ff"/>
  <rect x="22.67" y="21.477" width="19.091" height="19.091" fill="#3f3d56"/>
</svg>
