<svg id="a558ce24-c316-4979-8b6d-6e9831eceb7c" xmlns="http://www.w3.org/2000/svg" width="482.001" height="458.976" viewBox="0 0 482.001 458.976">
  <path d="M275,295.976H5a5.006,5.006,0,0,1-5-5V168a5.006,5.006,0,0,1,5-5H275a5.006,5.006,0,0,1,5,5V290.976A5.007,5.007,0,0,1,275,295.976Z" fill="#fff"/>
  <path d="M275,295.976H5a5.006,5.006,0,0,1-5-5V168a5.006,5.006,0,0,1,5-5H275a5.006,5.006,0,0,1,5,5V290.976A5.007,5.007,0,0,1,275,295.976ZM5,165a3,3,0,0,0-3,3V290.976a3,3,0,0,0,3,3H275a3,3,0,0,0,3-3V168a3,3,0,0,0-3-3Z" fill="#3f3d56"/>
  <circle cx="40" cy="201.488" r="21" fill="#6c63ff"/>
  <path d="M88.5,187.488a3.5,3.5,0,0,0,0,7h165a3.5,3.5,0,0,0,0-7Z" fill="#e6e6e6"/>
  <path d="M88.5,208.488a3.5,3.5,0,0,0,0,7h71a3.5,3.5,0,0,0,0-7Z" fill="#e6e6e6"/>
  <path d="M23.892,242.06c-2.662,0-4.828,1.571-4.828,3.5s2.166,3.5,4.828,3.5h227.65c2.662,0,4.829-1.57,4.829-3.5s-2.167-3.5-4.829-3.5Z" fill="#e6e6e6"/>
  <path d="M23.892,263.06c-2.662,0-4.828,1.571-4.828,3.5s2.166,3.5,4.828,3.5h227.65c2.662,0,4.829-1.57,4.829-3.5s-2.167-3.5-4.829-3.5Z" fill="#e6e6e6"/>
  <path d="M477,132.976H207a5.006,5.006,0,0,1-5-5V5a5.006,5.006,0,0,1,5-5H477a5.006,5.006,0,0,1,5,5V127.976A5.007,5.007,0,0,1,477,132.976Z" fill="#fff"/>
  <path d="M477,132.976H207a5.006,5.006,0,0,1-5-5V5a5.006,5.006,0,0,1,5-5H477a5.006,5.006,0,0,1,5,5V127.976A5.007,5.007,0,0,1,477,132.976ZM207,2a3,3,0,0,0-3,3V127.976a3,3,0,0,0,3,3H477a3,3,0,0,0,3-3V5a3,3,0,0,0-3-3Z" fill="#3f3d56"/>
  <circle cx="242" cy="38.488" r="21" fill="#6c63ff"/>
  <path d="M290.5,24.488a3.5,3.5,0,0,0,0,7h165a3.5,3.5,0,0,0,0-7Z" fill="#e6e6e6"/>
  <path d="M290.5,45.488a3.5,3.5,0,0,0,0,7h71a3.5,3.5,0,0,0,0-7Z" fill="#e6e6e6"/>
  <path d="M225.892,79.06c-2.662,0-4.828,1.571-4.828,3.5s2.166,3.5,4.828,3.5h227.65c2.662,0,4.829-1.57,4.829-3.5s-2.167-3.5-4.829-3.5Z" fill="#e6e6e6"/>
  <path d="M225.892,100.06c-2.662,0-4.828,1.571-4.828,3.5s2.166,3.5,4.828,3.5h227.65c2.662,0,4.829-1.57,4.829-3.5s-2.167-3.5-4.829-3.5Z" fill="#e6e6e6"/>
  <path d="M477,458.976H207a5.006,5.006,0,0,1-5-5V331a5.006,5.006,0,0,1,5-5H477a5.006,5.006,0,0,1,5,5V453.976A5.007,5.007,0,0,1,477,458.976Z" fill="#fff"/>
  <path d="M477,458.976H207a5.006,5.006,0,0,1-5-5V331a5.006,5.006,0,0,1,5-5H477a5.006,5.006,0,0,1,5,5V453.976A5.007,5.007,0,0,1,477,458.976ZM207,328a3,3,0,0,0-3,3V453.976a3,3,0,0,0,3,3H477a3,3,0,0,0,3-3V331a3,3,0,0,0-3-3Z" fill="#3f3d56"/>
  <circle cx="242" cy="364.488" r="21" fill="#6c63ff"/>
  <path d="M290.5,350.488a3.5,3.5,0,0,0,0,7h165a3.5,3.5,0,0,0,0-7Z" fill="#e6e6e6"/>
  <path d="M290.5,371.488a3.5,3.5,0,0,0,0,7h71a3.5,3.5,0,0,0,0-7Z" fill="#e6e6e6"/>
  <path d="M225.892,405.06c-2.662,0-4.828,1.571-4.828,3.5s2.166,3.5,4.828,3.5h227.65c2.662,0,4.829-1.57,4.829-3.5s-2.167-3.5-4.829-3.5Z" fill="#e6e6e6"/>
  <path d="M225.892,426.06c-2.662,0-4.828,1.571-4.828,3.5s2.166,3.5,4.828,3.5h227.65c2.662,0,4.829-1.57,4.829-3.5s-2.167-3.5-4.829-3.5Z" fill="#e6e6e6"/>
</svg>
