<svg xmlns="http://www.w3.org/2000/svg" width="979" height="640" viewBox="0 0 979 640">
  <g id="a568df60-cc88-4b90-b934-345dd9d3752a">
    <path d="M979,640H0V0H979ZM2,638H977V2H2Z" fill="#3f3d56"/>
    <rect x="20" y="16" width="472" height="608" fill="#3f3d56"/>
    <rect x="489" y="16" width="472" height="608" fill="#6c63ff"/>
    <path d="M622.883,581.691a61.671,61.671,0,0,1-3.074-6.562c-3.938-9.844,3.692-17.674,4.019-18l.3-.3-.007-.422c-.087-5.458-2.194-133.965-8.511-159.226-5.7-22.811-23.345-29.038-27.46-30.195l.01-.113-20.289-2.6c7.593-50.006,15.2-165.635-70.758-189.446a55.476,55.476,0,0,0-9.082-1.5l-.186,1.991a54.736,54.736,0,0,1,8.73,1.433c84.452,23.394,76.827,137.818,69.311,187.266l-30.726-3.938c-8-4.489-17.04-12.546-18.1-34.165a56.451,56.451,0,0,0,19.769-36.7,3.623,3.623,0,0,0,.43.026c4.448,0,8.066-5.2,8.066-11.6s-3.618-11.6-8.066-11.6a3.451,3.451,0,0,0-2.439.869A56.392,56.392,0,0,0,489.143,227.4l-.285,1.979a54.129,54.129,0,0,1,0,107.131l.285,1.98a55.506,55.506,0,0,0,26-11.028c1.371,20.195,9.989,28.8,17.364,33.378-8.429,11.529-22.086,18.509-40.625,20.731-.99.12-1.981.219-2.97.308l.178,1.992c1.011-.091,2.02-.192,3.03-.313,19.144-2.3,33.289-9.556,42.055-21.585l.346.044c.065.036.131.074.2.109l.043-.078L586,368.61,571.244,539.374l0,.056v.055c0,.007.04,1.577.04,4.34v.232h0a418.95,418.95,0,0,1-2.2,45.122c-1.654,14.862-4.166,26.234-7.467,33.82H535.72a23.555,23.555,0,0,1,1.415-6.881l2.315-6.637-4.074,5.728a39.58,39.58,0,0,1-7.993,7.79H489v2h39.035l.263-.191a44.445,44.445,0,0,0,5.779-5.037,21.617,21.617,0,0,0-.367,4.248l.019.98h71.062l.233-.137c4.256-2.49,4.256-7.091,4.256-15.443,0-5.239,3.519-8.758,7.244-12.483a41.378,41.378,0,0,0,5.308-6.042C625.014,586.122,624.881,585.458,622.883,581.691Zm-87.4-312.625c.757-.809.961-1.026,1.779-1.026,3.288,0,6.066,4.4,6.066,9.6,0,5.169-2.74,9.541-6,9.6a2.2,2.2,0,0,0-.272-.5c.087-1.26.145-2.526.145-3.8a55.4,55.4,0,0,0-1.763-13.825Zm42.069,287.488-5.972,27.875c1.346-14.257,1.655-28.184,1.7-36.39Zm42.62,33.231a39.8,39.8,0,0,1-5.058,5.736c-3.849,3.851-7.83,7.832-7.83,13.9,0,8.194-.119,11.708-3.042,13.58H563.78c3.2-7.712,5.635-18.919,7.255-33.35l2.142-3.15,6.474-30.214-6.371-12.7c0-2.338-.032-3.8-.039-4.093l14.733-170.482c4.326,1.279,20.379,7.386,25.7,28.653,6.088,24.355,8.308,150.278,8.443,158.375-1.517,1.7-8.123,9.933-4.162,19.834a63.7,63.7,0,0,0,3.165,6.758C622.811,585.822,622.811,585.822,620.168,589.785Z" fill="#3f3d56"/>
    <path d="M489.37,174.74V398.09l-43.65,5.09-38.9,4.55-13.61,1.58v.01l-.64.07s-2.25-6.89-4.02-20.63c-3.06-23.75-4.69-67.96,9.26-132.37C416.42,170.42,472.51,172.16,489.37,174.74Z" fill="#2f2e41"/>
    <polygon points="486.37 582.85 489.37 583 489.37 623.92 350.94 623.92 353.89 612.78 357.61 598.74 374.89 581.46 378.81 577.54 486.37 582.85" fill="#2f2e41"/>
    <path d="M489.37,228.82V336.9a55.126,55.126,0,1,1-10.92-109.16,54.487,54.487,0,0,1,10.36.98C489,228.75,489.18,228.78,489.37,228.82Z" fill="#ffb9b9"/>
    <path d="M489.37,319.57V436.68l-43.65-33.5-25.57-19.62,20.43-9.29c.92-.41,1.88-.85,2.89-1.31,15.23-6.92,17.8-25.61,17.75-37.73a76.812,76.812,0,0,0-.79-11.03Z" fill="#ffb9b9"/>
    <path d="M486.37,382.79c1-.09,2-.19,3-.31V623.92H473.35c-10.19-3.09-18.22-6.1-18.22-6.1s-48.76-6.36-63.6-4.24l-2.92.42c-8.95,1.28-25.92,3.37-34.72-1.22-8.77-4.57-9.44-15.77,13.96-41q3.075-3.315,6.72-6.96c3.645-3.645,31.8-21.2,27.56-27.56s-10.6-33.92-10.6-33.92l.1-5.45,1.58-88.57v-.01l.44-24.69,46.93-10.35,8.19,6.11A132.031,132.031,0,0,0,486.37,382.79Z" fill="#575a89"/>
    <path d="M400.532,623.921h-25.31l9.95-3.98s3.86.71,9.38,2.22C396.392,622.661,398.412,623.241,400.532,623.921Z" fill="#ffb9b9"/>
    <path d="M402.132,488.5c-3.27,1.23-6.85,4.65-10.5,9.39-15.32,19.85-31.9,62.69-31.9,62.69s5.59,5.59,8.12,11.2c1.29,2.86,1.79,5.73.36,7.88-4.24,6.36,0,0,4.24,0,1.65,0,2.34.64,2.44,1.8.15,1.82-1.15,4.92-2.44,8.8-2.12,6.36,0,8.48,10.6,10.6s4.24,2.12,4.24,8.48a10.084,10.084,0,0,0,1.32,4.66,28.877,28.877,0,0,0,7.16,8.06c-.42.03-.82.06-1.22.1a32.547,32.547,0,0,0-8.31,1.76h-54.27a12.753,12.753,0,0,0,2.32-3.98c2.12-6.36-14.84-16.96-16.96-19.08s-2.12-10.6,0-19.08-2.12-8.48-6.36-12.72,0-10.6,4.24-16.96,4.24-4.24-2.12-16.96,6.36-14.84,6.36-14.84,27.56-57.24,42.4-91.16c9.81-22.43,20.56-34.67,26.7-40.38a38.977,38.977,0,0,1,5.1-4.14l10.6,4.24s1.23,7.71,2.57,18.86C410.162,435.321,414.212,483.971,402.132,488.5Z" fill="#575a89"/>
    <path d="M489.37,210.71V227.8c-.18.31-.37.61-.56.92-11.06,18.15-30.79,43.1-61.11,56.71l-2.72-15.97-5.67-33.28Z" fill="#2f2e41"/>
    <path d="M256.192,538.941c.031,63.031-37.43,85.054-83.649,85.077q-1.61,0-3.205-.034-3.213-.069-6.359-.29c-41.716-2.933-74.139-26.053-74.167-84.671-.03-60.663,77.464-137.257,83.276-142.92,0,0,0,0,.011,0,.22-.216.333-.324.333-.324S256.161,475.915,256.192,538.941Z" fill="#6c63ff"/>
    <path d="M169.492,614.378,200.081,571.6l-30.663,47.477-.08,4.91q-3.213-.067-6.359-.289l3.267-63.058-.026-.488.056-.093.311-5.958L135.8,506.531l30.876,43.1.078,1.263,2.468-47.643L142.864,454.1l26.678,40.782,2.546-98.778.01-.329v.324l-.393,77.9L197.9,443.1,171.6,480.7l-.673,42.659,24.467-40.95-24.561,47.222-.374,23.721,35.507-57L170.32,561.63Z" fill="#3f3d56"/>
    <path d="M826.1,442.123a439.837,439.837,0,0,0-41.977-48.071l-.688-.658-1.046.994c-8.558,8.339-83.608,83.216-83.578,143.635.031,65.812,40.082,82.934,74.117,85.592v.006l.979.069c2.1.15,4.258.248,6.406.293h.007l1,.02V624c.692.01,1.383.023,2.078.023h.144c25.337-.013,45.467-6.459,59.83-19.161,16.483-14.576,24.834-37.089,24.819-66.915C868.176,505.108,845.294,467.713,826.1,442.123Zm-26.736,83.369-19.042,34.875-.881,56.2,7.847-10.975-7.866,12.18-.068,4.179-.7-.023q-1.512-.051-3.008-.138c-.207-.012-.415-.023-.622-.036l3.216-62.065,0-.053-.012-.232.368-6.578-7.937-12.262,6.03,8.419.061.976,2-.01,2.468-47.642.013-.279-15.643-29.173L781.323,496.9l-.459,29.182,8.984-15.036-9.016,17.334-.435,27.561Zm-98.553,12.53c-.012-25.129,13.195-55.912,39.254-91.493a446.639,446.639,0,0,1,41.961-48.969l-2.4,93.092-24.925-38.1-1.718,1.02L779.21,502.48l-2.25,43.435-29.347-40.966-1.652,1.125,30.61,47.294-.28,5.382-.087.142.041.745-3.212,61.981C739.853,619.009,700.842,602.269,700.812,538.022Zm94.931-78.857-13.815,19.746.092-3.562Zm-12.2,162.853c-.734,0-1.46-.014-2.188-.024l.059-3.618,30.507-47.237-1.653-1.125-28.725,40.175.773-49.3,35.524-65.061-1.727-1.008-33.6,53.944.313-19.882,24.451-47.013-1.745-.974-22.549,37.742.609-38.616,26.131-37.351-1.582-1.22-24.42,28.8.371-73.432c10.731,10.646,82.074,83.61,82.1,141.122C866.226,607.4,821.266,622,783.542,622.018Z" fill="#3f3d56"/>
  </g>
  <g id="fbd903e1-372a-44d3-807c-ec597f1414f9">
    <path d="M140.827,167.221a9.649,9.649,0,0,1-5.688-1.883l-13.705-9.958a6.642,6.642,0,0,0-7.834,0l-13.706,9.958a9.675,9.675,0,0,1-14.889-10.816L90.24,138.41a6.648,6.648,0,0,0-2.421-7.452L74.114,121A9.676,9.676,0,0,1,79.8,103.5H96.742a6.646,6.646,0,0,0,6.338-4.6l5.235-16.112a9.675,9.675,0,0,1,18.4,0l5.234,16.112a6.648,6.648,0,0,0,6.339,4.6h16.941A9.676,9.676,0,0,1,160.92,121l-13.7,9.958a6.648,6.648,0,0,0-2.422,7.452l5.236,16.112a9.531,9.531,0,0,1-3.516,10.816A9.643,9.643,0,0,1,140.827,167.221Z" fill="#fff"/>
    <path d="M279.713,167.221a9.649,9.649,0,0,1-5.687-1.883l-13.7-9.958a6.659,6.659,0,0,0-7.835,0l-13.706,9.958a9.674,9.674,0,0,1-14.888-10.816l5.234-16.112a6.649,6.649,0,0,0-2.42-7.452L213,121a9.676,9.676,0,0,1,5.687-17.5h16.941a6.646,6.646,0,0,0,6.338-4.6L247.2,82.781a9.675,9.675,0,0,1,18.4,0l5.236,16.112a6.645,6.645,0,0,0,6.338,4.6h16.94a9.676,9.676,0,0,1,5.688,17.5L286.1,130.958a6.649,6.649,0,0,0-2.421,7.452l5.235,16.112a9.531,9.531,0,0,1-3.515,10.816A9.644,9.644,0,0,1,279.713,167.221Z" fill="#fff"/>
    <path d="M414.713,166.221a9.649,9.649,0,0,1-5.687-1.883l-13.7-9.958a6.659,6.659,0,0,0-7.835,0l-13.706,9.958a9.674,9.674,0,0,1-14.888-10.816l5.234-16.112a6.649,6.649,0,0,0-2.42-7.452L348,120a9.676,9.676,0,0,1,5.687-17.5h16.941a6.646,6.646,0,0,0,6.338-4.6L382.2,81.781a9.675,9.675,0,0,1,18.4,0l5.236,16.112a6.645,6.645,0,0,0,6.338,4.6h16.94a9.676,9.676,0,0,1,5.688,17.5L421.1,129.958a6.649,6.649,0,0,0-2.421,7.452l5.235,16.112a9.531,9.531,0,0,1-3.515,10.816A9.644,9.644,0,0,1,414.713,166.221Z" fill="#fff"/>
    <path d="M612.713,167.221a9.649,9.649,0,0,1-5.687-1.883l-13.7-9.958a6.659,6.659,0,0,0-7.835,0l-13.706,9.958a9.674,9.674,0,0,1-14.888-10.816l5.234-16.112a6.649,6.649,0,0,0-2.42-7.452L546,121a9.676,9.676,0,0,1,5.687-17.5h16.941a6.646,6.646,0,0,0,6.338-4.6L580.2,82.781a9.675,9.675,0,0,1,18.4,0l5.236,16.112a6.645,6.645,0,0,0,6.338,4.6h16.94a9.676,9.676,0,0,1,5.688,17.5L619.1,130.958a6.649,6.649,0,0,0-2.421,7.452l5.235,16.112a9.531,9.531,0,0,1-3.515,10.816A9.644,9.644,0,0,1,612.713,167.221Z" fill="#fff"/>
  </g>
</svg>
