<svg xmlns="http://www.w3.org/2000/svg" width="644.137" height="557.334" viewBox="0 0 644.137 557.334">
  <g id="b2448b99-d97f-419e-8dc3-d5510f0392fe">
    <rect x="0.275" y="0.365" width="643.862" height="412.358" fill="#e6e6e6"/>
    <rect x="18.686" y="52.085" width="607.039" height="336.243" fill="#fff"/>
    <rect width="643.862" height="27.354" fill="#6c63ff"/>
    <circle cx="20.327" cy="13.985" r="5.07" fill="#fff"/>
    <circle cx="39.571" cy="13.985" r="5.07" fill="#fff"/>
    <circle cx="58.814" cy="13.985" r="5.07" fill="#fff"/>
    <rect x="73.844" y="86.973" width="155.981" height="266.467" fill="#e6e6e6"/>
    <rect x="256.75" y="86.973" width="129.984" height="73.348" fill="#6c63ff"/>
    <rect x="256.75" y="180.747" width="129.984" height="78.919" fill="#e6e6e6"/>
    <rect x="256.75" y="280.092" width="129.984" height="73.348" fill="#e6e6e6"/>
    <rect x="414.587" y="237.315" width="155.981" height="116.125" fill="#e6e6e6"/>
    <polygon points="593.514 536.786 581.698 540.056 563.462 496.038 580.901 491.212 593.514 536.786" fill="#ffb8b8"/>
    <path d="M572.324,539.016l22.787-6.306h0l3.971,14.347h0l-37.135,10.277h0A14.887,14.887,0,0,1,572.324,539.016Z" fill="#2f2e41"/>
    <polygon points="470.328 545.875 458.068 545.875 452.235 498.587 470.33 498.587 470.328 545.875" fill="#ffb8b8"/>
    <path d="M449.311,542.372h23.643v14.886h-38.53A14.887,14.887,0,0,1,449.311,542.372Z" fill="#2f2e41"/>
    <path d="M523.259,391.836c-10.239,0-20.839-1.525-29.749-6.061A38.421,38.421,0,0,1,473.8,362.209c-4.642-14.7,1.211-29.14,6.872-43.105,3.507-8.654,6.82-16.827,7.68-24.884l.3-2.86c1.339-12.848,2.5-23.943,8.9-28.105,3.318-2.157,7.78-2.28,13.641-.377l55.045,17.881-2.024,104.49-.335.112C563.589,385.458,544.185,391.836,523.259,391.836Z" fill="#2f2e41"/>
    <path d="M510.229,230.348s27-8,48-5c0,0-12,66-8,88s-69.5,8.5-54.5-12.5l5-25s-10-10-1-22Z" fill="#6c63ff"/>
    <path d="M502.553,188.44a26.531,26.531,0,0,1,26.5-26.5h5a26.529,26.529,0,0,1,26.5,26.5v.5H549.987l-3.6-10.092-.721,10.092H540.2l-1.818-5.092-.364,5.092H502.553Z" fill="#2f2e41"/>
    <path d="M266.355,220.551A101.163,101.163,0,0,1,249.19,84.562q-2.9,2.922-5.61,6.12A101.158,101.158,0,1,0,398.205,221.153q2.7-3.2,5.089-6.559A101.164,101.164,0,0,1,266.355,220.551Z" opacity="0.3" style="isolation: isolate"/>
    <path d="M559.292,319.477l-2.1-19.906L585.959,283.7,567.207,261l3.059-25.5,7.62-3.266.237.305c3.593,4.62,35.106,45.281,35.106,50.307,0,5.163-6.029,20.323-14.277,24.447-7.956,3.978-37.831,11.71-39.1,12.038Z" fill="#2f2e41"/>
    <rect x="414.587" y="86.973" width="155.981" height="116.125" fill="#e6e6e6"/>
    <path d="M534.678,218.751a4.432,4.432,0,0,1-.353-4.707c5.3-10.078,12.718-28.7,2.87-40.184l-.707-.825h28.587v42.919l-25.969,4.582a4.631,4.631,0,0,1-.8.071A4.478,4.478,0,0,1,534.678,218.751Z" fill="#2f2e41"/>
    <path d="M514.315,201.911h-80.79a1.532,1.532,0,0,1-.3-.024l38.21-66.185a2.675,2.675,0,0,1,4.657,0l25.643,44.416,1.229,2.125Z" fill="#d3d3d3"/>
    <path d="M559.3,201.911H489.421l13.541-19.668.974-1.417,17.645-25.632a3.571,3.571,0,0,1,5.3-.316,3.222,3.222,0,0,1,.254.316Z" fill="#d3d3d3"/>
    <path d="M510.479,211.44v-25a33.5,33.5,0,1,1,67,0h0v25a4.505,4.505,0,0,1-4.5,4.5h-58A4.5,4.5,0,0,1,510.479,211.44Z" fill="#2f2e41"/>
    <circle cx="537.095" cy="190.797" r="24.561" fill="#ffb8b8"/>
    <path d="M539.2,406.587l.027-.757c.03-.84,2.988-84.372,2-117.967-.992-33.709,9.922-62.9,10.032-63.192l.089-.234.241-.07c14.12-4.033,26.369,8.006,26.491,8.128l.172.172-4.021,33.176,17.216,120.641Z" fill="#2f2e41"/>
    <path d="M495.054,353.937h-80.79a1.693,1.693,0,0,1-.3-.024l38.21-66.185a2.675,2.675,0,0,1,4.657,0l25.643,44.415,1.229,2.125Z" fill="#d3d3d3"/>
    <path d="M540.037,353.937H470.16L483.7,334.268l.974-1.416L502.32,307.22a3.57,3.57,0,0,1,5.3-.317,3.234,3.234,0,0,1,.254.317Z" fill="#d3d3d3"/>
    <path d="M496.948,389.855l-33.276-6.239,11.618-89.407c.781-2.5,18.778-59.143,26.951-62.208a139.552,139.552,0,0,1,18.167-5.047l1.183-.237-6.672,10.009L488.355,300.38Z" fill="#2f2e41"/>
    <path d="M479.61,534.919l-42.995-7.166,24.128-98.524,35.9-134.737.354,2.392c.029.179,3.383,17.78,53.151,9.97l.438-.068.121.426L610.862,519.75l-48.991,8.165L517.189,372.848Z" fill="#2f2e41"/>
    <path d="M341.652,259.007h-80.79a1.682,1.682,0,0,1-.3-.024L298.77,192.8a2.675,2.675,0,0,1,4.657,0l25.644,44.415,1.229,2.125Z" fill="#d3d3d3"/>
    <path d="M386.635,259.007H316.759L330.3,239.338l.974-1.416,17.645-25.632a3.569,3.569,0,0,1,5.3-.317,3.1,3.1,0,0,1,.255.317Z" fill="#d3d3d3"/>
    <path d="M455.545,281.6a10.055,10.055,0,0,0,15.392.917l32.59,14.658-2.965-18.331-30.493-11.109A10.11,10.11,0,0,0,455.545,281.6Z" fill="#ffb8b8"/>
    <path d="M419.58,41.546a135.02,135.02,0,1,0,7.655,199.4L592.853,380.7a12.442,12.442,0,1,0,16.066-19l-.018-.015L443.283,221.931A135.029,135.029,0,0,0,419.58,41.546ZM408.9,208.474A101.157,101.157,0,1,1,396.827,65.926h0A101.158,101.158,0,0,1,408.9,208.474Z" fill="#3f3d56"/>
    <path d="M544.98,324.536A10.053,10.053,0,0,0,557.4,315.4l34.433-9.557-14-12.2-30.552,10.947a10.11,10.11,0,0,0-2.308,19.947Z" fill="#ffb8b8"/>
  </g>
  <g id="b93405e1-9335-481f-b653-44d6b753cbea">
    <path d="M174.333,351.509H73.828a2.151,2.151,0,0,1-.376-.03l47.534-82.336a3.329,3.329,0,0,1,5.794,0l31.9,55.254,1.529,2.644Z" fill="#d3d3d3"/>
    <path d="M230.293,351.509H143.365l16.845-24.468,1.212-1.763,21.95-31.887a4.442,4.442,0,0,1,6.593-.394,3.839,3.839,0,0,1,.316.394Z" fill="#d3d3d3"/>
    <path d="M339.589,352.561H258.8a1.7,1.7,0,0,1-.3-.024l38.21-66.185a2.675,2.675,0,0,1,4.657,0l25.643,44.415,1.229,2.126Z" fill="#d3d3d3"/>
    <path d="M384.572,352.561H314.7l13.541-19.668.974-1.417,17.645-25.632a3.571,3.571,0,0,1,5.3-.317,3.234,3.234,0,0,1,.254.317Z" fill="#d3d3d3"/>
    <path d="M336.369,159.63H258.787a1.487,1.487,0,0,1-.29-.023L295.19,96.05a2.569,2.569,0,0,1,4.472,0L324.288,138.7l1.179,2.041Z" fill="#c5c5ea"/>
    <path d="M379.567,159.63h-67.1l13-18.887.936-1.361,16.944-24.614a3.429,3.429,0,0,1,5.09-.3,2.978,2.978,0,0,1,.244.3Z" fill="#c5c5ea"/>
  </g>
</svg>
